<svg xmlns="http://www.w3.org/2000/svg" xmlns:xlink="http://www.w3.org/1999/xlink" viewBox="0 0 15.34 20.43"><defs><style>.cls-1{fill:none;clip-rule:evenodd;}.cls-2{clip-path:url(#clip-path);}.cls-3{fill:#f9fafa;}.cls-10,.cls-11,.cls-12,.cls-13,.cls-14,.cls-15,.cls-16,.cls-3,.cls-4,.cls-5,.cls-6,.cls-7,.cls-8,.cls-9{fill-rule:evenodd;}.cls-4{fill:#aeaed1;}.cls-5{fill:#ff002b;}.cls-6{fill:#000072;}.cls-7{fill:#b10040;}.cls-8{fill:#ffc100;}.cls-9{fill:#b18622;}.cls-10{fill:#d2670d;}.cls-11{fill:#ec2a83;}.cls-12{fill:#c7c8df;}.cls-13{fill:#bd2280;}.cls-14{fill:#fff;}.cls-15{fill:#a85221;}.cls-16{fill:#971b7d;}</style><clipPath id="clip-path" transform="translate(-0.66 -1.41)"><path class="cls-1" d="M.32,0h13a.32.32,0,0,1,.32.32v13a.32.32,0,0,1-.32.32H.32A.32.32,0,0,1,0,13.34V.32A.32.32,0,0,1,.32,0"/></clipPath></defs><g id="Capa_2" data-name="Capa 2"><g id="Capa_1-2" data-name="Capa 1"><g class="cls-2"><path class="cls-3" d="M9.35,10.81a3.42,3.42,0,0,0,2.4,2.44c1.91.42,4.88,2.12,3.65,6.49s-7.8-.66-7.8-.66S3.47,20,2,16.63s2.47-9,7.36-5.82" transform="translate(-0.66 -1.41)"/><path class="cls-4" d="M6.52,15.08a3.94,3.94,0,0,1-3.87-2.46,1.28,1.28,0,0,1,.15-.25,4.41,4.41,0,0,0,1.66,1.45,1.07,1.07,0,0,0,.59.68,1,1,0,0,0,.46.11,1.06,1.06,0,0,0,.76-.33h.16a4.43,4.43,0,0,0,3-1.17,3.94,3.94,0,0,0,.79-.31l.08.07a4,4,0,0,1-3.77,2.21" transform="translate(-0.66 -1.41)"/><path class="cls-5" d="M10.47,10.9a4.17,4.17,0,1,0-5.07,3,4.16,4.16,0,0,0,5.07-3" transform="translate(-0.66 -1.41)"/><path class="cls-6" d="M13.16,21.84c-2.22,0-5-2-5.63-2.43a7.43,7.43,0,0,1-2.23,0,4.47,4.47,0,0,1-3.59-2.67,5.42,5.42,0,0,1,1.7-6,4.86,4.86,0,0,1,6.11-.17.31.31,0,0,1,.13.19A3.08,3.08,0,0,0,11.81,13a5.53,5.53,0,0,1,3.54,2.38,5.56,5.56,0,0,1,.35,4.5,2.53,2.53,0,0,1-1.62,1.87,2.81,2.81,0,0,1-.92.14M7.6,18.77a.31.31,0,0,1,.19.06s4,3,6.1,2.28a1.92,1.92,0,0,0,1.22-1.45,5,5,0,0,0-.29-4,5,5,0,0,0-3.14-2.09A3.63,3.63,0,0,1,9.09,11a4.25,4.25,0,0,0-5.28.18A4.87,4.87,0,0,0,2.27,16.5a3.86,3.86,0,0,0,3.11,2.31,6.76,6.76,0,0,0,2.16,0Z" transform="translate(-0.66 -1.41)"/><path class="cls-6" d="M6.43,14.28a4.53,4.53,0,0,1-1.09-.14,4.39,4.39,0,1,1,1.09.14m0-8.34a3.92,3.92,0,1,0,1,.12A4,4,0,0,0,6.43,5.94Zm4,5Z" transform="translate(-0.66 -1.41)"/><path class="cls-7" d="M6.53,13.79h0a1,1,0,0,0,0-.57,8.22,8.22,0,0,0,1.27.1l.54,0a3.85,3.85,0,0,1-1.8.49" transform="translate(-0.66 -1.41)"/><path class="cls-6" d="M6.5,14H6.44a1.06,1.06,0,0,0,.09-.25,3.85,3.85,0,0,0,1.8-.49A6.57,6.57,0,0,0,9,13.21,4.16,4.16,0,0,1,6.5,14" transform="translate(-0.66 -1.41)"/><path class="cls-8" d="M6.49,13.78a1,1,0,0,1-2-.51,1,1,0,1,1,2,.51" transform="translate(-0.66 -1.41)"/><path class="cls-6" d="M5.49,14.6a.82.82,0,0,1-.26,0,1.07,1.07,0,0,1-.78-1.3,1.09,1.09,0,0,1,1.31-.78,1.07,1.07,0,0,1,.66.5,1.08,1.08,0,0,1-.93,1.62m0-2.07a1,1,0,1,0,1,1.24A1,1,0,0,0,6.35,13a1,1,0,0,0-.86-.49Z" transform="translate(-0.66 -1.41)"/><path class="cls-9" d="M5.49,14.52l-.24,0a1,1,0,0,1-.73-.75,1.11,1.11,0,0,0,.49.12,1.05,1.05,0,0,0,.82-.4A1,1,0,0,0,6,13.13l.44.08a1.06,1.06,0,0,1,0,.56,1,1,0,0,1-1,.75" transform="translate(-0.66 -1.41)"/><path class="cls-6" d="M5.49,14.6a.82.82,0,0,1-.26,0,.48.48,0,0,1-.18-.06l-.18-.11a1.06,1.06,0,0,1-.39-.68l0,0a1,1,0,0,0,.73.75l.24,0a1,1,0,0,0,1-.75,1.06,1.06,0,0,0,0-.56h0a1.05,1.05,0,0,1-.11.94l-.11.13a1.1,1.1,0,0,1-.77.32" transform="translate(-0.66 -1.41)"/><path class="cls-6" d="M5.49,14.87a1.26,1.26,0,0,1-.33,0,1.34,1.34,0,0,1-1-1.63,1.34,1.34,0,1,1,1.3,1.68m0-2.07a.73.73,0,1,0,.71.9.72.72,0,0,0-.53-.88Z" transform="translate(-0.66 -1.41)"/><path class="cls-6" d="M5.24,14.65h0a.11.11,0,0,1-.09-.14l.26-1a.12.12,0,0,1,.23.06l-.26,1a.12.12,0,0,1-.11.09" transform="translate(-0.66 -1.41)"/><path class="cls-3" d="M12.55,4.24l-3.29.33a4.75,4.75,0,0,0-3.39-.8h0L3,1.79a.52.52,0,0,0-.79.26,7.66,7.66,0,0,0-.32,4.07h0a4.8,4.8,0,0,0-.83,1.66C.43,10.22,2.52,12,5.46,12.72s5.61.23,6.24-2.21a5,5,0,0,0,0-2.25,8,8,0,0,0,1.42-3.42.52.52,0,0,0-.57-.6" transform="translate(-0.66 -1.41)"/><path class="cls-10" d="M12.55,4.24l-3.29.33a4.55,4.55,0,0,0-.87-.47,3.51,3.51,0,0,0,2.15,6.29,3.3,3.3,0,0,0,1.22-.22,5,5,0,0,0-.06-1.91,8,8,0,0,0,1.42-3.42.52.52,0,0,0-.57-.6" transform="translate(-0.66 -1.41)"/><path class="cls-11" d="M3.43,3.21a.26.26,0,0,0-.4.14,4,4,0,0,0-.2,2l0,.12h0a2.07,2.07,0,0,1,.19-.23,3.27,3.27,0,0,1,1.88-1h0Z" transform="translate(-0.66 -1.41)"/><path class="cls-6" d="M2.83,5.51v0l0-.12a4.17,4.17,0,0,1,.2-2,.3.3,0,0,1,.19-.19.31.31,0,0,1,.28,0L5,4.24l-.06,0a3.22,3.22,0,0,0-1.86,1,2.45,2.45,0,0,0-.19.23H2.83Zm.45-2.3H3.21a.23.23,0,0,0-.15.14,4.14,4.14,0,0,0-.19,2v0L3,5.2a3.38,3.38,0,0,1,1.81-1l-1.42-1A.2.2,0,0,0,3.28,3.21Z" transform="translate(-0.66 -1.41)"/><path class="cls-12" d="M4.76,4.32l.1,0h-.1M3.42,5V5l.21-.15-.06,0L3.42,5Z" transform="translate(-0.66 -1.41)"/><path class="cls-13" d="M3.4,4.86A2.91,2.91,0,0,1,3.65,3.6a.17.17,0,0,1,.12-.1l.7.47.31.26a3.35,3.35,0,0,0-1.38.63" transform="translate(-0.66 -1.41)"/><path class="cls-6" d="M4.47,4l-.7-.47h0a.15.15,0,0,1,.11,0ZM3.41,5V4.86a3.35,3.35,0,0,1,1.38-.63l.08.07-.1,0a2.18,2.18,0,0,0-1.14.48Z" transform="translate(-0.66 -1.41)"/><path class="cls-6" d="M2.86,5.63A.17.17,0,0,1,2.7,5.5l0-.13a4.22,4.22,0,0,1,.2-2.07A.44.44,0,0,1,3.15,3a.4.4,0,0,1,.38.05L5,4.11a.15.15,0,0,1,.07.13A.17.17,0,0,1,5,4.38L5,4.4a3.2,3.2,0,0,0-1.79.94A1.07,1.07,0,0,0,3,5.55a.15.15,0,0,1-.12.07h0m.42-2.3h0a.12.12,0,0,0-.07.07A4,4,0,0,0,3,5.09a3.53,3.53,0,0,1,1.57-.93L3.34,3.35A.07.07,0,0,0,3.28,3.33Z" transform="translate(-0.66 -1.41)"/><path class="cls-11" d="M11.69,5.19a.27.27,0,0,1,.3.31,4.11,4.11,0,0,1-.8,1.84l-.08.1h0a1.8,1.8,0,0,0-.06-.3A3.29,3.29,0,0,0,9.89,5.37h0Z" transform="translate(-0.66 -1.41)"/><path class="cls-6" d="M11.11,7.49l0,0v0A1.82,1.82,0,0,0,11,7.15,3.2,3.2,0,0,0,9.86,5.4h0l0-.06h.06l1.81-.18a.29.29,0,0,1,.26.1.35.35,0,0,1,.08.26,4.2,4.2,0,0,1-.81,1.86l-.08.1ZM10,5.4a3.29,3.29,0,0,1,1.1,1.73,1.49,1.49,0,0,1,.05.21l0,0A4.2,4.2,0,0,0,12,5.5a.24.24,0,0,0-.06-.2.23.23,0,0,0-.19-.07Z" transform="translate(-0.66 -1.41)"/><path class="cls-6" d="M11.11,7.6a.19.19,0,0,1-.1,0A.14.14,0,0,1,11,7.45a2,2,0,0,0,0-.27A3.25,3.25,0,0,0,9.79,5.49l0,0a.16.16,0,0,1,0-.15.19.19,0,0,1,.13-.1L11.68,5a.45.45,0,0,1,.36.13.42.42,0,0,1,.1.37,4.12,4.12,0,0,1-.83,1.92l-.08.1a.18.18,0,0,1-.12,0m-.84-2.11a3.44,3.44,0,0,1,.93,1.57,4.12,4.12,0,0,0,.63-1.58.17.17,0,0,0,0-.1.1.1,0,0,0-.09,0Z" transform="translate(-0.66 -1.41)"/><path class="cls-6" d="M7.79,13.32A9.78,9.78,0,0,1,5.39,13C1.94,12.11.17,10.08.78,7.71a4.81,4.81,0,0,1,.79-1.65A8.24,8.24,0,0,1,1.93,2a.81.81,0,0,1,1.22-.4L5.94,3.47A5,5,0,0,1,7.8,3.6a4.76,4.76,0,0,1,1.53.68L12.52,4a.82.82,0,0,1,.88.94A8.39,8.39,0,0,1,12,8.33a5,5,0,0,1,0,2.25c-.46,1.77-2,2.74-4.18,2.74M2.15,6a.29.29,0,0,1,0,.27,4.32,4.32,0,0,0-.78,1.56,2.83,2.83,0,0,0,.79,2.83,7.18,7.18,0,0,0,3.41,1.76,7.29,7.29,0,0,0,3.83.1,2.84,2.84,0,0,0,2.06-2.1,4.73,4.73,0,0,0,0-2.12.27.27,0,0,1,.05-.23,7.76,7.76,0,0,0,1.37-3.3.25.25,0,0,0-.06-.2.24.24,0,0,0-.2-.07l-3.29.33a.25.25,0,0,1-.19,0,4.8,4.8,0,0,0-1.44-.66A4.72,4.72,0,0,0,5.9,4.05.29.29,0,0,1,5.68,4L2.83,2a.26.26,0,0,0-.21,0,.23.23,0,0,0-.15.15A7.34,7.34,0,0,0,2.15,6Z" transform="translate(-0.66 -1.41)"/><path class="cls-6" d="M5.17,9.87c0,.09-.07.18-.1.27-.19.76.09,1.49.63,1.63S6.84,11.4,7,10.65a1.51,1.51,0,0,0,0-.28Z" transform="translate(-0.66 -1.41)"/><path class="cls-11" d="M6.47,11.1c0,.2-.32.29-.61.22s-.49-.29-.44-.49.33-.29.62-.22.48.29.43.49" transform="translate(-0.66 -1.41)"/><path class="cls-6" d="M6.05,11.38a.65.65,0,0,1-.2,0,.75.75,0,0,1-.37-.21.39.39,0,0,1-.1-.33c.06-.22.36-.33.67-.25s.52.32.46.54a.43.43,0,0,1-.46.27m-.21-.75a.37.37,0,0,0-.38.21.28.28,0,0,0,.08.25.6.6,0,0,0,.33.19c.26.07.52,0,.56-.19s-.13-.37-.4-.44Z" transform="translate(-0.66 -1.41)"/><path class="cls-6" d="M7.2,9.26a1,1,0,0,1-1,.43.9.9,0,0,1-.48-.88c.08-.27.52-.21.79-.12s.73.29.65.57" transform="translate(-0.66 -1.41)"/><path class="cls-14" d="M6.9,9.12c0,.05-.13.06-.25,0S6.44,9,6.45,9s.13-.06.25,0,.21.11.2.15" transform="translate(-0.66 -1.41)"/><path class="cls-6" d="M6.79,9.18l-.14,0a.42.42,0,0,1-.15-.07S6.44,9,6.45,9a.1.1,0,0,1,.09,0,.35.35,0,0,1,.17,0c.13,0,.21.11.2.17s-.06,0-.12,0M6.56,9h0a.09.09,0,0,0-.08,0,.08.08,0,0,0,0,.07.37.37,0,0,0,.14.08c.12,0,.23,0,.24,0S6.82,9,6.7,9Z" transform="translate(-0.66 -1.41)"/><path class="cls-3" d="M7.55,10a.71.71,0,0,1-.78.45c-.38-.09-.65-.35-.59-.57-.06.22-.41.32-.79.22a.69.69,0,0,1-.46-.78Z" transform="translate(-0.66 -1.41)"/><path class="cls-6" d="M7.55,10a.55.55,0,0,1-.07.24,1,1,0,0,1-.16.2.72.72,0,0,1-.24.14.7.7,0,0,1-.29,0l-.14,0-.13,0a1.42,1.42,0,0,1-.25-.12.74.74,0,0,1-.21-.22A.67.67,0,0,1,6,10.06a.74.74,0,0,1,0-.21.21.21,0,0,1,.25-.15.21.21,0,0,1,.15.24h0a.57.57,0,0,1-.1.19.72.72,0,0,1-.15.11.88.88,0,0,1-.29.09,1.29,1.29,0,0,1-.28,0l-.13,0a.39.39,0,0,1-.14-.05.66.66,0,0,1-.24-.17.7.7,0,0,1-.13-.24.74.74,0,0,1,0-.25.54.54,0,0,1,.06-.25.79.79,0,0,0,.16.41.54.54,0,0,0,.31.2l.09,0h.29a.3.3,0,0,0,.15-.06S6,9.86,6,9.85l.4.1s0,0,0,.07a.53.53,0,0,0,.1.12.91.91,0,0,0,.16.11l.09,0,.09,0a.54.54,0,0,0,.37,0A.73.73,0,0,0,7.55,10" transform="translate(-0.66 -1.41)"/><path class="cls-3" d="M3,8.85,2,8.6Z" transform="translate(-0.66 -1.41)"/><path class="cls-6" d="M3,9,2,8.6l1,.14a.11.11,0,0,1,.1.13A.11.11,0,0,1,3,9H3" transform="translate(-0.66 -1.41)"/><path class="cls-3" d="M3,9.42,2,9.61Z" transform="translate(-0.66 -1.41)"/><path class="cls-6" d="M3,9.53,2,9.61l1-.31A.12.12,0,0,1,3,9.53H3" transform="translate(-0.66 -1.41)"/><path class="cls-3" d="M3.19,9.94l-.8.6Z" transform="translate(-0.66 -1.41)"/><path class="cls-6" d="M3.26,10l-.87.5.73-.69a.12.12,0,0,1,.16,0,.12.12,0,0,1,0,.17l0,0" transform="translate(-0.66 -1.41)"/><path class="cls-3" d="M9.56,10.53l1,.25Z" transform="translate(-0.66 -1.41)"/><path class="cls-6" d="M9.59,10.42l.93.36-1-.14a.12.12,0,1,1,0-.23h0" transform="translate(-0.66 -1.41)"/><path class="cls-3" d="M9.31,11l.76.64Z" transform="translate(-0.66 -1.41)"/><path class="cls-6" d="M9.38,11l.69.73-.83-.55a.11.11,0,1,1,.12-.19h0" transform="translate(-0.66 -1.41)"/><path class="cls-3" d="M8.86,11.4l.41.9Z" transform="translate(-0.66 -1.41)"/><path class="cls-6" d="M9,11.35l.3,1-.51-.85a.13.13,0,0,1,0-.17.13.13,0,0,1,.16,0v0" transform="translate(-0.66 -1.41)"/><path class="cls-12" d="M8,4.41l-.41-.27h0l.49.16L8,4.41m.62,8.28c.21-.14.41-.27.6-.42v0a4.06,4.06,0,0,0,.71-.66l.1.07L10,11.59a3,3,0,0,0,.49-.82h0l0,0a2.29,2.29,0,0,0,.12-.37,3.15,3.15,0,0,0,.87-.12,1,1,0,0,1,0,.17,2.84,2.84,0,0,1-2.06,2.1A3.77,3.77,0,0,1,8.66,12.69Z" transform="translate(-0.66 -1.41)"/><path class="cls-15" d="M11.72,5h0L9.87,5.2a.19.19,0,0,0-.13.1.16.16,0,0,0,0,.15l0,0A3.25,3.25,0,0,1,10.9,7.18a2,2,0,0,1,0,.27.14.14,0,0,0,.06.12.19.19,0,0,0,.1,0,.18.18,0,0,0,.12,0l.08-.1a4.12,4.12,0,0,0,.83-1.92.42.42,0,0,0-.1-.37A.44.44,0,0,0,11.72,5m-1.13,5.36a5.87,5.87,0,0,0,.17-1.79A5.78,5.78,0,0,0,8,4.41l.11-.11a5.07,5.07,0,0,1,.95.5.3.3,0,0,0,.16,0h0l3.29-.33h0a.23.23,0,0,1,.17.07.25.25,0,0,1,.06.2,7.76,7.76,0,0,1-1.37,3.3.27.27,0,0,0-.05.23,4.77,4.77,0,0,1,0,1.95A3.15,3.15,0,0,1,10.59,10.39Z" transform="translate(-0.66 -1.41)"/><path class="cls-13" d="M11.2,7.06A2.75,2.75,0,0,0,11,6.59a3.11,3.11,0,0,0,.35-1.2h0l.33,0h0a.12.12,0,0,1,.08,0,.17.17,0,0,1,0,.1,4.12,4.12,0,0,1-.63,1.58" transform="translate(-0.66 -1.41)"/><path class="cls-16" d="M11,6.59a3.52,3.52,0,0,0-.76-1.1l1.11-.11h0A3.11,3.11,0,0,1,11,6.59" transform="translate(-0.66 -1.41)"/><path class="cls-6" d="M11,6.59a2.75,2.75,0,0,1,.17.47,4.12,4.12,0,0,0,.63-1.58.17.17,0,0,0,0-.1.12.12,0,0,0-.08,0h0l-.33,0-1.11.11A3.52,3.52,0,0,1,11,6.59m.08,1a.19.19,0,0,1-.1,0A.14.14,0,0,1,11,7.45a2,2,0,0,0,0-.27A3.25,3.25,0,0,0,9.79,5.49l0,0a.16.16,0,0,1,0-.15.19.19,0,0,1,.13-.1L11.68,5h0a.44.44,0,0,1,.32.13.42.42,0,0,1,.1.37,4.12,4.12,0,0,1-.83,1.92l-.08.1A.18.18,0,0,1,11.11,7.6Z" transform="translate(-0.66 -1.41)"/><path class="cls-6" d="M8.15,13l.51-.33a3.77,3.77,0,0,0,.7-.15,2.84,2.84,0,0,0,2.06-2.1,1,1,0,0,0,0-.17,4.77,4.77,0,0,0,0-1.95.27.27,0,0,1,.05-.23,7.76,7.76,0,0,0,1.37-3.3.25.25,0,0,0-.06-.2.23.23,0,0,0-.17-.07h0l-3.29.33h0a.3.3,0,0,1-.16,0,5.07,5.07,0,0,0-.95-.5l-.49-.16h0C7.41,4,7.18,3.87,7,3.75l.74.12a4.9,4.9,0,0,1,1.54.7l3.29-.33h.06a.53.53,0,0,1,.51.61,8,8,0,0,1-1.42,3.42,4.88,4.88,0,0,1,0,2.25A3.44,3.44,0,0,1,8.15,13" transform="translate(-0.66 -1.41)"/><path class="cls-12" d="M10.52,10.78Z" transform="translate(-0.66 -1.41)"/><path class="cls-6" d="M10.52,10.78h0Z" transform="translate(-0.66 -1.41)"/><path class="cls-6" d="M10.07,11.68l-.1-.07v0Z" transform="translate(-0.66 -1.41)"/><polygon class="cls-6" points="8.61 10.89 8.6 10.86 8.6 10.86 8.61 10.89"/><path class="cls-6" d="M3.52,7.28A.89.89,0,0,1,4.07,7a1.28,1.28,0,0,1,.34,0,1,1,0,0,1,.33.12l.14.09A.69.69,0,0,1,5,7.27a1.15,1.15,0,0,1,.2.29.68.68,0,0,1,0,.65,1.3,1.3,0,0,0-.29-.45l-.18-.14-.1-.07-.1-.06,0,0,0,0-.1,0-.23-.06a4.37,4.37,0,0,0-.56-.06" transform="translate(-0.66 -1.41)"/><path class="cls-6" d="M10.1,8.75a3.09,3.09,0,0,0-.52-.22l-.23-.06H8.9l-.23,0a1.14,1.14,0,0,0-.47.25.67.67,0,0,1,.29-.59A.89.89,0,0,1,8.8,8L9,8h.17A1,1,0,0,1,9.48,8a1.11,1.11,0,0,1,.3.17.87.87,0,0,1,.32.55" transform="translate(-0.66 -1.41)"/><path class="cls-6" d="M6.18,10.1H6.12A.19.19,0,0,1,6,9.84l.19-.56a.2.2,0,0,1,.25-.13.2.2,0,0,1,.13.26L6.37,10a.21.21,0,0,1-.19.13" transform="translate(-0.66 -1.41)"/></g></g></g></svg>